{"title":"Alex (2017) S01 E04 - 1080p x265 HEVC - SWE (ENG SUBS) [BRSHNKV]","magnet":"magnet:?xt=urn:btih:11f7001666492bc12b90c129a0caad4e06cccea6&dn=Alex+%282017%29+S01+E04+-+1080p+x265+HEVC+-+SWE+%28ENG+SUBS%29+%5BBRSHNKV%5D&tr=udp%3A%2F%2Ftracker.leechers-paradise.org%3A6969&tr=udp%3A%2F%2Fzer0day.ch%3A1337&tr=udp%3A%2F%2Fopen.demonii.com%3A1337&tr=udp%3A%2F%2Ftracker.coppersurfer.tk%3A6969&tr=udp%3A%2F%2Fexodus.desync.com%3A6969","uploader":"BRSHNKV","categoryP":"video","categoryS":"hd___tv_shows","size":"453922858","seeders":"0","leechers":"0","description":"The six-episode series tells the story about the ruthless and corrupt police officer Alex who has decided to come to terms with his dubious past and become clean. But the dark forces he has collaborated with earlier refuses to let him off the hook, putting both Alex and his family&apos;s lives at great danger. At the same time Alex gets a new partner, Frida, who secretly has been instructed to bring him down.\r\n\r\n\r\nTech:\r\n\r\nFormat                                   : MPEG-4\r\nFormat profile                           : Base Media / Version 2\r\nCodec ID                                 : mp42\r\nFile size                                : 433 MiB\r\nDuration                                 : 42mn 39s\r\nOverall bit rate mode                    : Variable\r\nOverall bit rate                         : 1 419 Kbps\r\nMovie name                               : Alex S01 E04 - x265 HEVC [BRSHNKV]\r\nEncoded date                             : UTC 2018-02-05 13:44:09\r\nTagged date                              : UTC 2018-02-05 13:44:09\r\nWriting application                      : HandBrake 20160211184813-ffd8cb1-master 2016021301\r\n\r\nVideo\r\nID                                       : 1\r\nFormat                                   : HEVC\r\nFormat/Info                              : High Efficiency Video Coding\r\nFormat profile                           : Main <a href=\"/cdn-cgi/l/email-protection\" class=\"__cf_email__\" data-cfemail=\"95a4a5d5d9a1\">[email&#xA0;protected]</a>@Main\r\nCodec ID                                 : hev1\r\nCodec ID/Info                            : High Efficiency Video Coding\r\nDuration                                 : 42mn 39s\r\nBit rate                                 : 1 251 Kbps\r\nWidth                                    : 1 920 pixels\r\nHeight                                   : 1 080 pixels\r\nDisplay aspect ratio                     : 16:9\r\nFrame rate mode                          : Constant\r\nFrame rate                               : 25.000 fps\r\nColor space                              : YUV\r\nChroma subsampling                       : 4:2:0\r\nBit depth                                : 10 bits\r\nBits/(Pixel*Frame)                       : 0.024\r\nStream size                              : 382 MiB (88%)\r\nWriting library                          : x265 1.9:[Mac OS X][clang 7.0.2][64 bit] 10bit\r\nEncoded date                             : UTC 2018-02-05 13:44:09\r\nTagged date                              : UTC 2018-02-05 13:44:09\r\nColor range                              : Limited\r\nColor primaries                          : BT.709\r\nTransfer characteristics                 : BT.709\r\nMatrix coefficients                      : BT.709\r\n\r\nAudio\r\nID                                       : 2\r\nFormat                                   : AAC\r\nFormat/Info                              : Advanced Audio Codec\r\nFormat profile                           : LC\r\nCodec ID                                 : 40\r\nDuration                                 : 42mn 39s\r\nBit rate mode                            : Variable\r\nBit rate                                 : 162 Kbps\r\nChannel(s)                               : 2 channels\r\nChannel positions                        : Front: L R\r\nSampling rate                            : 48.0 KHz\r\nCompression mode                         : Lossy\r\nStream size                              : 49.5 MiB (11%)\r\nTitle                                    : Stereo / Stereo\r\nLanguage                                 : Swedish","last_updated":"2018-02-07T12:00:40.781Z","parsed":{"xt":"urn:btih:11f7001666492bc12b90c129a0caad4e06cccea6","dn":"Alex (2017) S01 E04 - 1080p x265 HEVC - SWE (ENG SUBS) [BRSHNKV]","tr":["udp://exodus.desync.com:6969","udp://open.demonii.com:1337","udp://tracker.coppersurfer.tk:6969","udp://tracker.leechers-paradise.org:6969","udp://zer0day.ch:1337"],"infoHash":"11f7001666492bc12b90c129a0caad4e06cccea6","infoHashBuffer":{"type":"Buffer","data":[17,247,0,22,102,73,43,193,43,144,193,41,160,202,173,78,6,204,206,166]},"name":"Alex (2017) S01 E04 - 1080p x265 HEVC - SWE (ENG SUBS) [BRSHNKV]","announce":["udp://exodus.desync.com:6969","udp://open.demonii.com:1337","udp://tracker.coppersurfer.tk:6969","udp://tracker.leechers-paradise.org:6969","udp://zer0day.ch:1337"],"urlList":[]}}